<?xml version="1.0" standalone="no"?>
<!DOCTYPE svg PUBLIC "-//W3C//DTD SVG 20010904//EN"
 "http://www.w3.org/TR/2001/REC-SVG-20010904/DTD/svg10.dtd">
<svg version="1.0" xmlns="http://www.w3.org/2000/svg"
 width="612.000000pt" height="612.000000pt" viewBox="0 0 612.000000 612.000000"
 preserveAspectRatio="xMidYMid meet">
<metadata>
Created by potrace 1.14, written by Peter Selinger 2001-2017
</metadata>
<g transform="translate(0.000000,612.000000) scale(0.100000,-0.100000)"
fill="#000000" stroke="none">
<path d="M0 3060 l0 -3060 3060 0 3060 0 0 3060 0 3060 -3060 0 -3060 0 0
-3060z m2240 1835 c34 -66 65 -124 70 -130 4 -5 33 -59 65 -120 51 -96 156
-289 245 -450 66 -119 208 -378 260 -475 176 -327 478 -875 577 -1047 10 -18
21 -33 24 -33 4 0 24 21 45 48 21 26 79 90 129 142 51 52 275 289 500 525 225
237 450 473 501 525 133 138 241 253 266 285 55 70 127 99 180 74 36 -17 456
-531 512 -626 22 -38 -30 9 -244 223 -212 211 -241 235 -266 232 -19 -2 -29
-9 -29 -20 0 -9 45 -63 100 -120 177 -183 194 -207 37 -53 -84 83 -156 151
-161 153 -4 1 -14 -4 -21 -13 -15 -18 -23 -8 215 -253 113 -116 131 -136 121
-129 -3 1 -83 80 -179 175 -96 94 -179 172 -185 172 -5 0 -15 -6 -21 -14 -10
-12 17 -45 146 -178 159 -164 128 -142 -67 49 -81 79 -107 99 -118 91 -7 -6
-12 -17 -10 -24 2 -7 54 -66 117 -131 193 -200 203 -215 28 -43 -158 156 -168
164 -184 147 -16 -16 -14 -21 47 -84 36 -37 72 -74 80 -83 8 -9 62 -65 120
-125 l105 -110 -119 115 c-65 63 -150 145 -187 183 -38 37 -73 67 -78 67 -5 0
-13 -6 -19 -13 -9 -10 21 -47 128 -160 77 -81 140 -150 140 -154 0 -4 -65 57
-144 136 -102 102 -149 142 -160 138 -27 -11 -18 -31 35 -82 28 -28 110 -113
182 -190 125 -134 123 -132 -61 50 -181 179 -193 189 -209 173 -19 -19 -20
-17 237 -281 99 -102 116 -120 106 -115 -3 2 -53 50 -113 108 -256 250 -262
255 -278 239 -13 -13 3 -33 136 -172 83 -86 147 -157 142 -157 -4 0 -73 65
-153 145 -80 80 -151 145 -158 145 -7 0 -15 -7 -19 -16 -4 -11 23 -46 88 -112
120 -123 266 -278 257 -272 -4 3 -88 86 -188 184 -169 167 -182 178 -198 163
-15 -16 -11 -23 63 -100 234 -241 280 -291 210 -227 -38 36 -121 115 -183 175
-63 61 -119 110 -125 110 -25 0 -15 -32 24 -75 23 -25 89 -94 148 -155 171
-176 150 -165 -36 19 -122 120 -176 167 -187 163 -22 -9 -20 -30 5 -53 12 -10
98 -100 192 -199 169 -178 169 -178 36 -48 -242 239 -272 264 -289 248 -13
-13 -5 -25 60 -93 327 -338 336 -353 42 -67 -68 66 -125 122 -127 124 -3 2
-11 -2 -20 -9 -18 -15 -8 -26 179 -220 182 -189 172 -187 -21 4 -129 127 -186
177 -197 173 -22 -9 -20 -30 5 -53 12 -10 98 -100 192 -199 160 -169 163 -172
47 -59 -69 66 -158 152 -199 190 -69 65 -106 85 -106 56 0 -6 81 -96 179 -200
201 -209 187 -201 -42 23 -84 83 -156 151 -161 153 -4 1 -13 -4 -20 -11 -9
-12 17 -43 132 -163 242 -252 260 -278 51 -71 -110 108 -206 197 -212 197 -7
0 -15 -7 -18 -15 -4 -10 59 -84 197 -228 157 -164 175 -185 79 -92 -260 251
-291 280 -298 282 -4 2 -13 -1 -21 -6 -12 -7 14 -40 116 -148 72 -76 150 -156
172 -178 23 -21 41 -44 41 -50 0 -5 -6 -3 -13 5 -7 8 -87 89 -179 179 -144
141 -169 162 -181 149 -12 -12 0 -29 90 -123 57 -61 154 -164 215 -230 l112
-120 -125 122 c-235 231 -322 313 -331 313 -5 0 -11 -7 -14 -15 -4 -10 61 -84
195 -222 111 -114 201 -211 201 -216 0 -5 -96 85 -212 201 -187 186 -215 209
-228 197 -13 -13 -2 -27 86 -118 56 -56 137 -140 181 -187 176 -188 155 -174
-64 44 -213 211 -253 243 -253 201 0 -7 69 -84 153 -171 311 -324 281 -302
-98 69 -46 46 -85 75 -93 72 -7 -3 -12 -11 -10 -19 2 -7 86 -98 186 -202 262
-269 265 -289 5 -31 -195 194 -221 216 -233 202 -12 -14 -2 -27 77 -108 49
-51 126 -130 170 -177 180 -192 165 -183 -50 30 -208 206 -228 223 -243 209
-14 -15 -3 -29 133 -170 82 -85 170 -177 196 -205 45 -49 75 -63 143 -68 32
-3 154 -89 214 -152 120 -127 176 -275 168 -446 -4 -85 -9 -106 -38 -165 -39
-79 -97 -140 -166 -174 -42 -21 -63 -24 -154 -24 -101 0 -108 2 -183 38 -58
29 -96 57 -150 111 -67 68 -88 102 -291 470 -120 218 -225 404 -232 413 -12
17 -14 17 -49 -2 -21 -10 -63 -48 -95 -83 -54 -59 -154 -194 -165 -224 -3 -7
7 -26 21 -43 151 -172 236 -322 275 -480 12 -52 30 -72 279 -325 117 -120 220
-188 334 -222 46 -14 51 -17 21 -13 -47 7 -166 61 -232 106 -27 18 -123 106
-214 196 -91 90 -168 163 -171 163 -3 0 -8 -26 -11 -59 -15 -171 -146 -290
-307 -278 -36 2 -81 12 -100 22 -196 98 -199 376 -5 471 48 23 64 26 132 22
58 -3 93 -11 137 -31 32 -15 61 -25 64 -22 9 8 -54 140 -101 212 -46 71 -153
203 -165 203 -4 0 -34 -48 -67 -107 -158 -288 -211 -383 -244 -438 -118 -196
-228 -322 -317 -365 -94 -45 -203 -35 -298 27 l-40 26 75 21 c209 61 365 205
606 562 47 71 117 173 155 227 38 53 66 102 63 107 -3 5 -25 18 -49 29 -24 10
-54 33 -67 50 -12 17 -29 31 -36 31 -18 0 -73 28 -97 49 -27 23 -150 23 -165
-1 -6 -10 -87 -148 -180 -307 -94 -160 -206 -341 -250 -403 -147 -210 -200
-348 -238 -618 -7 -50 -10 -55 -33 -55 -25 0 -25 1 -24 80 1 84 20 181 54 279
27 80 26 112 -5 132 -18 12 -36 15 -66 10 -54 -9 -151 10 -208 39 -204 104
-254 438 -101 674 139 215 346 318 537 267 101 -27 175 -94 225 -203 19 -44
36 -67 53 -73 29 -11 63 -1 86 26 19 22 119 193 119 203 0 4 -26 32 -57 62
-139 134 -242 204 -351 239 -36 12 -85 33 -108 46 -82 48 -164 159 -164 223 0
48 -25 54 -110 25 -369 -125 -751 36 -918 388 -177 372 -4 823 380 992 123 54
309 71 450 41 157 -33 332 -145 427 -273 103 -139 140 -245 148 -412 5 -117 0
-163 -32 -281 -10 -36 -15 -76 -12 -90 3 -13 31 -55 61 -93 30 -38 90 -120
133 -184 80 -117 278 -378 305 -399 12 -10 31 16 119 167 57 99 107 180 110
180 7 0 92 -180 87 -185 -12 -11 -151 -96 -183 -113 -25 -13 -49 -35 -64 -62
-26 -47 -35 -29 69 -145 29 -33 63 -81 74 -106 12 -25 38 -62 59 -82 20 -21
37 -44 37 -51 0 -7 8 -21 19 -30 18 -16 21 -14 64 46 25 35 93 122 151 193 58
72 106 135 106 141 0 5 -13 30 -28 55 -26 40 -39 49 -123 84 -59 24 -105 50
-122 69 -16 17 -65 110 -109 206 -112 246 -121 270 -108 285 9 11 7 12 -9 8
-22 -6 -29 12 -8 20 7 4 6 6 -4 6 -23 1 -32 30 -17 49 10 12 10 14 1 8 -7 -4
-18 -4 -24 0 -8 4 -3 12 12 21 l24 13 -27 -6 c-24 -5 -28 -2 -39 35 -7 23 -17
41 -22 41 -5 0 -4 7 3 15 10 12 10 15 -3 15 -16 0 -30 26 -21 41 3 5 0 9 -6 9
-7 0 -10 5 -8 12 2 6 -4 20 -14 30 -10 10 -16 23 -13 28 4 6 1 10 -5 10 -7 0
-10 7 -6 15 3 8 1 15 -5 15 -6 0 -9 7 -5 15 3 8 2 14 -2 14 -19 -3 -23 2 -12
16 11 13 10 14 -5 8 -14 -5 -17 -3 -12 10 3 9 3 17 -1 17 -8 0 -36 60 -33 73
0 4 -4 7 -9 7 -6 0 -10 4 -10 9 0 5 -8 26 -17 47 -9 22 -16 42 -15 47 1 4 -3
7 -8 7 -6 0 -10 5 -10 10 0 6 -16 45 -36 88 -20 42 -48 102 -62 132 -14 30
-44 96 -68 145 -212 447 -245 526 -291 690 -10 39 14 0 77 -120z m1891 -26
c-32 -79 -74 -178 -93 -219 -196 -415 -338 -708 -572 -1185 l-187 -380 -25 45
c-14 25 -37 67 -50 93 l-25 48 137 237 c76 130 174 300 218 377 45 77 209 364
365 637 157 274 286 497 287 495 2 -2 -23 -68 -55 -148z m1010 -1376 c13 -16
12 -17 -3 -4 -10 7 -18 15 -18 17 0 8 8 3 21 -13z m-4184 -272 c45 -68 127
-149 206 -202 63 -44 173 -99 197 -99 13 0 13 -2 0 -14 -19 -17 -657 -445
-675 -452 -19 -8 -288 263 -281 282 3 8 70 110 149 227 79 117 181 268 226
336 l83 124 29 -73 c16 -39 46 -97 66 -129z m-448 -665 c144 -144 146 -149 96
-196 -25 -23 -26 -23 -60 -7 -45 21 -108 22 -168 1 -35 -12 -51 -13 -66 -4
-25 13 -25 7 -6 97 15 70 13 93 -10 169 -5 16 1 28 25 47 17 15 37 27 43 27 7
0 72 -60 146 -134z m3704 -1483 c-7 -2 -19 -2 -25 0 -7 3 -2 5 12 5 14 0 19
-2 13 -5z"/>
<path d="M1535 4133 c-23 -3 -73 -47 -217 -191 -187 -186 -211 -219 -195 -264
2 -8 99 82 235 218 198 198 244 251 213 243 -3 -1 -19 -4 -36 -6z"/>
<path d="M1387 3861 c-257 -258 -267 -269 -261 -300 4 -17 9 -31 13 -31 3 0
138 132 300 294 298 298 305 307 238 305 -15 0 -109 -88 -290 -268z"/>
<path d="M1472 3787 c-171 -171 -312 -319 -312 -327 0 -8 5 -22 10 -30 8 -12
77 52 340 315 315 315 329 330 307 342 -12 7 -24 12 -27 13 -3 0 -146 -141
-318 -313z"/>
<path d="M1306 4035 c-56 -46 -126 -128 -126 -148 0 -11 196 172 199 186 3 16
-20 4 -73 -38z"/>
<path d="M1540 3705 l-335 -335 20 -20 21 -20 334 335 c184 185 337 338 339
340 6 7 -20 35 -33 35 -6 0 -162 -151 -346 -335z"/>
<path d="M1617 3632 c-325 -325 -337 -339 -319 -355 10 -9 23 -17 28 -17 15 0
664 656 664 671 0 15 -19 39 -30 39 -3 0 -157 -152 -343 -338z"/>
<path d="M1702 3560 c-177 -177 -322 -326 -322 -331 0 -5 12 -12 26 -15 24 -6
54 21 335 302 170 170 309 314 309 320 0 5 -6 18 -13 28 -12 17 -42 -10 -335
-304z"/>
<path d="M1777 3482 c-158 -158 -287 -290 -287 -293 0 -4 12 -9 28 -12 25 -5
50 17 295 261 260 260 281 285 259 319 -5 8 -103 -83 -295 -275z"/>
<path d="M1850 3405 c-123 -123 -221 -227 -218 -230 3 -4 22 -3 41 0 28 6 70
42 221 194 174 175 186 190 186 224 0 20 -1 37 -3 37 -1 0 -103 -101 -227
-225z"/>
<path d="M1925 3324 c-41 -42 -75 -78 -75 -81 0 -20 129 98 150 137 18 34 4
23 -75 -56z"/>
<path d="M3108 3089 c-27 -16 -23 -65 7 -85 23 -15 27 -15 50 0 60 39 4 121
-57 85z m33 -31 c1 -17 2 -19 6 -5 2 9 9 17 14 17 14 0 11 -48 -3 -53 -20 -7
-48 12 -48 32 0 35 29 44 31 9z"/>
<path d="M3814 2796 c-4 -11 46 -69 166 -193 153 -159 175 -178 206 -180 19 0
34 2 34 5 0 8 -378 375 -391 380 -5 2 -12 -3 -15 -12z"/>
<path d="M3765 2750 c-7 -12 303 -340 321 -340 54 0 44 15 -122 181 -93 93
-174 169 -181 169 -6 0 -15 -5 -18 -10z"/>
<path d="M3726 2704 c-3 -9 -3 -21 1 -27 16 -27 287 -297 297 -297 6 0 18 5
26 10 12 8 -17 41 -145 170 -88 88 -163 160 -166 160 -4 0 -10 -7 -13 -16z"/>
<path d="M3674 2655 c-5 -11 34 -57 137 -163 79 -81 146 -150 149 -155 4 -4
14 1 24 12 17 19 13 24 -134 168 -83 81 -156 149 -161 151 -5 2 -12 -4 -15
-13z"/>
<path d="M3635 2609 c-15 -24 12 -62 142 -198 l138 -144 19 28 18 28 -148 148
c-82 82 -152 149 -156 149 -4 0 -10 -5 -13 -11z"/>
<path d="M3587 2439 c171 -300 167 -294 197 -297 52 -6 73 5 96 54 l22 47 -87
87 c-91 91 -168 145 -224 156 l-34 7 30 -54z"/>
<path d="M4147 2343 c-4 -4 5 -20 20 -37 27 -30 27 -30 -8 2 -32 29 -39 32
-64 22 l-28 -11 34 -37 34 -37 -36 33 c-32 29 -40 32 -58 23 -12 -7 -21 -14
-21 -18 0 -3 21 -31 47 -62 l46 -56 -54 52 -54 52 -19 -26 -18 -25 78 -79 c92
-93 84 -106 -12 -19 -36 33 -70 60 -74 60 -22 0 -29 -161 -10 -245 34 -152
172 -328 296 -375 208 -80 376 24 392 241 10 142 -50 282 -172 404 -80 79
-141 119 -206 132 -27 5 -32 3 -25 -8 5 -8 0 -7 -12 4 -20 17 -64 23 -76 10z"/>
<path d="M1970 2315 c-30 -9 -71 -27 -91 -40 -145 -95 -261 -323 -245 -478 17
-167 125 -264 283 -255 138 7 279 112 346 256 46 98 71 208 63 280 -21 179
-180 285 -356 237z"/>
<path d="M3115 1682 c-139 -66 -176 -225 -81 -346 80 -103 256 -105 341 -4 49
58 69 115 69 200 1 87 1 87 -93 133 -73 36 -179 44 -236 17z"/>
</g>
</svg>
